<?xml version="1.0" encoding="utf-8"?>
<!-- Generator: Adobe Illustrator 21.0.2, SVG Export Plug-In . SVG Version: 6.00 Build 0)  -->
<svg version="1.1" id="Layer_1" xmlns="http://www.w3.org/2000/svg" xmlns:xlink="http://www.w3.org/1999/xlink" x="0px" y="0px"
	 viewBox="0 0 1467.7 247" style="enable-background:new 0 0 1467.7 247;" xml:space="preserve">
<style type="text/css">
	.st0{fill:none;stroke:#231F20;stroke-width:12;stroke-linecap:round;stroke-miterlimit:10;}
	.st1{fill:none;stroke:#231F20;stroke-width:12;stroke-linecap:round;stroke-linejoin:round;}
	.st2{enable-background:new    ;}
	.st3{fill:#231F20;}
</style>
<title>Asset 2</title>
<g id="Layer_2">
	<g id="Layer_1-2">
		<g>
			<path class="st0" d="M147.2,74.8l64.4,67.1c0,0,11.8,9.3,1.7,23.5c0,0-11.1,16.5-27.6,7.9c0,0-7.1,3.9-14.4-10.5
				c0,0-17.8-12.5-31.1-10.3c0,0-46.9,2.3-40.9-22.3c2.6-6.6,9.6-6.9,13-1.2c9.6,15.7,0.5,18.3,13.8,63.7"/>
			<path class="st1" d="M18.2,179.2c0,0,69-117.1,81.6-143.9l10,18.9l23.8-0.4l7.4-19.1l9.4,23.8"/>
			<path class="st1" d="M18.6,177.4C-10.7,119,12.8,47.9,71.2,18.6S200.7,12.8,230,71.2c29.3,58.4,5.8,129.5-52.6,158.8
				c-10.8,5.4-22.3,9.1-34.2,11.1"/>
		</g>
		<g>
			<g class="st2">
				<path class="st3" d="M408.8,76.1v90.6h-18.5v-52.1c0-1.2,0-2.5,0.1-3.9c0.1-1.4,0.2-2.8,0.3-4.3L366.6,153
					c-0.7,1.5-1.8,2.5-3,3.3c-1.3,0.7-2.7,1.1-4.3,1.1h-2.9c-1.6,0-3.1-0.4-4.3-1.1c-1.3-0.7-2.3-1.8-3-3.3L325,106.3
					c0.1,1.5,0.2,3,0.3,4.4c0.1,1.4,0.1,2.7,0.1,3.9v52.1h-18.5V76.1h16c0.9,0,1.7,0,2.4,0.1c0.7,0,1.3,0.2,1.8,0.4
					c0.5,0.2,1,0.5,1.5,1c0.4,0.4,0.9,1,1.3,1.8l23.3,46c0.8,1.6,1.6,3.2,2.4,4.9c0.8,1.7,1.5,3.4,2.2,5.2c0.7-1.8,1.4-3.6,2.2-5.3
					c0.8-1.7,1.6-3.4,2.5-5l23.3-45.8c0.4-0.8,0.8-1.4,1.3-1.8c0.4-0.4,0.9-0.8,1.5-1c0.5-0.2,1.2-0.3,1.8-0.4
					c0.7,0,1.5-0.1,2.4-0.1H408.8z"/>
				<path class="st3" d="M447.5,166.7h-21.1V76.1h21.1V166.7z"/>
				<path class="st3" d="M502.5,133.9c0,5.1-0.6,9.7-1.9,13.8c-1.3,4.1-3.2,7.7-5.7,10.7s-5.8,5.3-9.6,6.9
					c-3.9,1.6-8.4,2.5-13.6,2.5c-2.4,0-4.7-0.1-7-0.4c-2.3-0.2-4.7-0.7-7.2-1.2l1.1-12.3c0.1-1.1,0.6-1.9,1.3-2.6
					c0.7-0.7,1.8-1,3.2-1c0.7,0,1.6,0.1,2.6,0.3c1,0.2,2.3,0.3,3.7,0.3c2,0,3.8-0.3,5.3-0.8c1.5-0.6,2.8-1.5,3.8-2.8
					c1-1.3,1.7-3,2.2-5.1c0.5-2.1,0.7-4.7,0.7-7.8V76.1h21V133.9z"/>
				<path class="st3" d="M598.3,76.1v90.6h-10.9c-1.6,0-3-0.3-4.1-0.8c-1.1-0.5-2.2-1.4-3.3-2.7l-42.7-54c0.2,1.6,0.3,3.2,0.3,4.7
					c0.1,1.5,0.1,2.9,0.1,4.3v48.6h-18.5V76.1h11.1c0.9,0,1.7,0,2.3,0.1c0.6,0.1,1.2,0.2,1.7,0.5c0.5,0.2,1,0.6,1.4,1
					c0.5,0.4,1,1,1.6,1.7l43.1,54.4c-0.2-1.7-0.4-3.4-0.4-5.1c-0.1-1.6-0.1-3.2-0.1-4.6v-48H598.3z"/>
			</g>
			<g class="st2">
				<path class="st3" d="M642.8,78.7c10.3,0,18.1,2.3,23.4,6.8c5.2,4.5,7.9,11,7.9,19.3c0,3.9-0.7,7.4-2.2,10.6
					c-1.5,3.2-3.5,6-6.2,8.4c-2.7,2.3-6,4.2-9.8,5.5c-3.9,1.3-8.2,2-13,2h-16.4v35.5h-6.4v-88H642.8z M642.8,126.2
					c3.9,0,7.3-0.5,10.4-1.6c3.1-1.1,5.7-2.6,7.8-4.5c2.1-1.9,3.8-4.2,4.9-6.7c1.1-2.6,1.7-5.4,1.7-8.5c0-6.8-2.1-12-6.2-15.6
					c-4.1-3.6-10.3-5.5-18.6-5.5h-16.4v42.4H642.8z"/>
			</g>
			<g class="st2">
				<path class="st3" d="M752.8,166.7h-4.9c-0.6,0-1.1-0.2-1.4-0.5c-0.4-0.3-0.7-0.7-0.9-1.2l-10.3-25.6H692L681.7,165
					c-0.2,0.5-0.5,0.9-0.9,1.2c-0.4,0.3-0.9,0.5-1.5,0.5h-4.9l36-88h6.3L752.8,166.7z M733.3,134.8l-17.9-44.5
					c-0.6-1.5-1.2-3.2-1.8-5.2c-0.2,1-0.5,1.9-0.8,2.8c-0.3,0.9-0.6,1.7-0.9,2.5L694,134.8H733.3z"/>
				<path class="st3" d="M834.3,166.7h-4.9c-0.6,0-1.1-0.2-1.4-0.5c-0.4-0.3-0.7-0.7-0.9-1.2l-10.3-25.6h-43.2L763.2,165
					c-0.2,0.5-0.5,0.9-0.9,1.2c-0.4,0.3-0.9,0.5-1.5,0.5H756l36-88h6.3L834.3,166.7z M814.9,134.8L797,90.3
					c-0.6-1.5-1.2-3.2-1.8-5.2c-0.2,1-0.5,1.9-0.8,2.8c-0.3,0.9-0.6,1.7-0.9,2.5l-17.9,44.4H814.9z"/>
				<path class="st3" d="M909.6,166.7h-5.5c-0.7,0-1.3-0.1-1.8-0.3c-0.5-0.2-0.9-0.7-1.3-1.3l-28.2-35.7c-0.3-0.5-0.7-0.9-1-1.2
					c-0.4-0.3-0.7-0.6-1.2-0.8c-0.4-0.2-1-0.3-1.6-0.4c-0.6-0.1-1.3-0.1-2.2-0.1h-11.5v39.8h-6.4v-88h22.5c10.1,0,17.7,2,22.7,5.9
					c5,3.9,7.6,9.7,7.6,17.3c0,3.4-0.6,6.4-1.7,9.2c-1.2,2.8-2.8,5.2-5,7.3c-2.2,2.1-4.8,3.8-7.9,5.1c-3.1,1.3-6.6,2.2-10.4,2.7
					c1,0.6,1.9,1.5,2.7,2.5L909.6,166.7z M870.6,122.2c3.9,0,7.4-0.5,10.5-1.4c3.1-0.9,5.7-2.3,7.8-4s3.8-3.8,4.9-6.3
					c1.1-2.4,1.7-5.2,1.7-8.3c0-6.3-2-10.9-6.1-13.9c-4.1-3-10-4.5-17.9-4.5h-16.1v38.4H870.6z"/>
			</g>
			<g class="st2">
				<path class="st3" d="M998.6,122.7c0,6.8-1,12.9-3,18.3c-2,5.4-4.9,10.1-8.6,13.9c-3.7,3.8-8.1,6.7-13.3,8.8
					c-5.2,2-10.9,3-17.1,3h-32.2v-88h32.2c6.2,0,11.9,1,17.1,3c5.2,2,9.6,5,13.3,8.8c3.7,3.8,6.6,8.4,8.6,13.9
					C997.6,109.8,998.6,115.9,998.6,122.7z M992,122.7c0-6.1-0.9-11.6-2.5-16.4c-1.7-4.8-4.1-8.9-7.2-12.2
					c-3.1-3.3-6.8-5.8-11.2-7.6c-4.4-1.7-9.2-2.6-14.4-2.6h-25.7v77.7h25.7c5.3,0,10.1-0.9,14.4-2.6c4.4-1.7,8.1-4.3,11.2-7.6
					c3.1-3.3,5.5-7.4,7.2-12.2C991.1,134.4,992,128.9,992,122.7z"/>
			</g>
			<g class="st2">
				<path class="st3" d="M1016,169.5c-0.3,0.8-0.8,1.4-1.5,1.8c-0.7,0.4-1.3,0.6-2.1,0.6h-2.4l38.7-93.4c0.6-1.5,1.7-2.3,3.4-2.3
					h2.6L1016,169.5z"/>
			</g>
			<g class="st2">
				<path class="st3" d="M1132.4,83.7c0,1.1-0.2,2.1-0.5,3.2c-0.4,1-0.8,2-1.5,2.9l-42.5,60.8h43.2v16.2h-69.9v-8.1
					c0-1,0.2-1.9,0.5-2.8c0.3-0.9,0.8-1.8,1.4-2.6l42.7-61h-41.1V76.1h67.8V83.7z"/>
			</g>
			<g class="st2">
				<path class="st3" d="M1231,121.4c0,6.6-1.1,12.6-3.4,18.3c-2.3,5.6-5.4,10.5-9.5,14.7c-4.1,4.2-9,7.4-14.8,9.8
					c-5.8,2.4-12.2,3.5-19.3,3.5s-13.5-1.2-19.3-3.5c-5.8-2.4-10.8-5.6-14.9-9.8c-4.1-4.2-7.3-9.1-9.6-14.7
					c-2.3-5.6-3.4-11.7-3.4-18.3c0-6.6,1.1-12.6,3.4-18.3c2.3-5.6,5.5-10.5,9.6-14.7c4.1-4.1,9.1-7.4,14.9-9.8
					c5.8-2.4,12.2-3.5,19.3-3.5s13.5,1.2,19.3,3.6c5.8,2.4,10.7,5.7,14.8,9.8c4.1,4.1,7.3,9,9.5,14.7
					C1229.9,108.8,1231,114.9,1231,121.4z M1209.5,121.4c0-4.5-0.6-8.5-1.7-12.1c-1.2-3.6-2.8-6.6-5-9.1c-2.2-2.5-4.8-4.4-8-5.7
					c-3.2-1.3-6.7-2-10.8-2c-4.1,0-7.7,0.7-10.9,2c-3.2,1.3-5.8,3.2-8,5.7c-2.2,2.5-3.8,5.5-5,9.1c-1.2,3.6-1.7,7.6-1.7,12.1
					c0,4.5,0.6,8.6,1.7,12.2c1.2,3.6,2.8,6.6,5,9.1c2.2,2.5,4.9,4.4,8,5.7s6.8,2,10.9,2c4,0,7.6-0.7,10.8-2c3.1-1.3,5.8-3.2,8-5.7
					c2.2-2.5,3.8-5.5,5-9.1C1208.9,130,1209.5,125.9,1209.5,121.4z"/>
				<path class="st3" d="M1264.5,92.3v21.1h28.5V129h-28.5v21.6h37.2v16.2h-58.3V76.1h58.3v16.2H1264.5z"/>
				<path class="st3" d="M1335.7,112.8h3.4c3.1,0,5.3-1,6.7-2.9l20.4-29.6c1.2-1.6,2.5-2.7,3.9-3.3c1.4-0.6,3.1-0.9,5.2-0.9h18.3
					l-26.9,36.6c-1.9,2.5-4,4.4-6.2,5.5c1.6,0.6,3,1.4,4.3,2.4c1.3,1,2.5,2.4,3.6,4l27.4,42H1377c-1.2,0-2.2-0.1-3.1-0.2
					c-0.9-0.2-1.6-0.4-2.2-0.7c-0.6-0.3-1.2-0.7-1.6-1.2c-0.5-0.5-0.9-1-1.3-1.6l-20.5-31.5c-0.7-1.2-1.7-2-2.8-2.5
					c-1.1-0.5-2.7-0.7-4.6-0.7h-5.1v38.6h-21V76.1h21V112.8z"/>
			</g>
			<g class="st2">
				<path class="st3" d="M1467.7,92.8h-25.5v73.9h-21V92.8h-25.5V76.1h72V92.8z"/>
			</g>
		</g>
	</g>
</g>
</svg>
