<?xml version="1.0" encoding="utf-8"?>
<!-- Generator: Adobe Illustrator 21.1.0, SVG Export Plug-In . SVG Version: 6.00 Build 0)  -->
<svg version="1.1" id="Layer_1" xmlns="http://www.w3.org/2000/svg" xmlns:xlink="http://www.w3.org/1999/xlink" x="0px" y="0px"
	 viewBox="0 0 58 58.1" style="enable-background:new 0 0 58 58.1;" xml:space="preserve">
<style type="text/css">
	.st0{fill:none;stroke:#ADADAD;stroke-width:2;stroke-linecap:round;stroke-miterlimit:10;}
	.st1{fill:none;stroke:#ADADAD;stroke-width:2;stroke-linecap:round;stroke-linejoin:round;}
</style>
<title>Asset 2</title>
<g id="Layer_2">
	<g id="Layer_1-2">
		<g>
			<path class="st0" d="M35,21l13.3,13.9c1.4,1.2,1.6,3.4,0.4,4.8l0,0c0,0-2.3,3.4-5.7,1.6c0,0-1.5,0.8-3-2.2c0,0-3.7-2.6-6.4-2.1
				c0,0-9.7,0.5-8.4-4.6c0.2-0.8,1-1.3,1.7-1.1c0.4,0.1,0.8,0.4,1,0.8c2,3.2,0.1,3.8,2.9,13.2"/>
			<path class="st1" d="M8.4,42.6c0,0,14.2-24.2,16.8-29.7l2.1,3.9l4.9-0.1l1.5-3.9l2,4.9"/>
		</g>
		<path class="st0" d="M54.8,57c1.2,0,2.2-1,2.2-2.2l0,0c0,0,0-36.6,0-37.7c0-1.2-0.7-2.3-1.7-2.8L30.4,1.4c-0.9-0.5-2.1-0.5-3,0
			l-24.7,13C1.6,15,1,16.1,1,17.3C1,17.8,1,55,1,55c0,1.2,1,2.1,2.1,2.1L54.8,57L54.8,57z"/>
	</g>
</g>
</svg>
