<svg xmlns="http://www.w3.org/2000/svg" viewBox="0 0 95.22 95.22">
  <defs>
    <style>
      .cls-1, .cls-2, .cls-3 {
        fill: none;
        stroke-linecap: round;
        stroke-width: 2px;
      }

      .cls-1, .cls-2 {
        stroke: #231f20;
      }

      .cls-1, .cls-3 {
        stroke-miterlimit: 10;
      }

      .cls-2 {
        stroke-linejoin: round;
      }

      .cls-3 {
        stroke: #010101;
      }
    </style>
  </defs>
  <title>Asset 2</title>
  <g id="Layer_2" data-name="Layer 2">
    <g id="Layer_1-2" data-name="Layer 1">
      <g>
        <path class="cls-1" d="M54.21,36,67.5,49.89a3.42,3.42,0,0,1,.34,4.86s-2.29,3.4-5.7,1.62c0,0-1.47.8-3-2.16,0,0-3.67-2.58-6.42-2.12,0,0-9.67.48-8.44-4.6A1.44,1.44,0,0,1,47,47.23c2,3.23.11,3.78,2.86,13.16"/>
        <path class="cls-2" d="M27.6,57.56s14.25-24.17,16.84-29.7l2.06,3.9,4.91-.09,1.52-3.94,1.95,4.91"/>
      </g>
      <circle class="cls-3" cx="47.61" cy="47.61" r="46.61"/>
      <path class="cls-3" d="M74,72a2.15,2.15,0,0,0,2.15-2.15s0-36.56,0-37.7a3.21,3.21,0,0,0-1.73-2.83L49.64,16.44a3.24,3.24,0,0,0-3,0L21.9,29.35a3.23,3.23,0,0,0-1.73,2.86c0,.5,0,37.66,0,37.66A2.15,2.15,0,0,0,22.31,72Z"/>
    </g>
  </g>
</svg>
