<?xml version="1.0" encoding="utf-8"?>
<!-- Generator: Adobe Illustrator 21.1.0, SVG Export Plug-In . SVG Version: 6.00 Build 0)  -->
<svg version="1.1" id="Layer_1" xmlns="http://www.w3.org/2000/svg" xmlns:xlink="http://www.w3.org/1999/xlink" x="0px" y="0px"
	 viewBox="0 0 46.9 48.8" style="enable-background:new 0 0 46.9 48.8;" xml:space="preserve">
<style type="text/css">
	.st0{fill:#ADADAD;}
	.st1{fill:none;stroke:#ADADAD;stroke-width:2;stroke-miterlimit:10;}
</style>
<title>Asset 5</title>
<g id="Layer_2">
	<g id="Layer_1-2">
		<g>
			<g>
				<path class="st0" d="M34,24.6c1.1,0,2.2,0.2,3.4,0.5c0.8,0.2,1.6,0.7,2.3,1.3c0.6,0.5,1.1,1.1,1.3,1.9c0.3,0.8,0.5,1.5,0.5,2.4
					c0,0.8-0.2,1.7-0.5,2.5c-0.3,0.8-0.8,1.5-1.4,2c-0.7,0.6-1.5,1.1-2.3,1.3C36.2,36.8,35.1,37,34,37h-2.2v6.1h-4.3V24.7L34,24.6
					L34,24.6z M34,33.7c1.5,0.2,2.8-0.8,3.1-2.2c0.1-0.2,0.1-0.5,0-0.8c0-0.4-0.1-0.8-0.2-1.1c-0.2-0.3-0.3-0.6-0.5-0.8
					c-0.3-0.2-0.6-0.5-1-0.5c-0.5-0.2-0.9-0.2-1.4-0.2h-2.2v5.8L34,33.7z"/>
				<path class="st0" d="M11.9,5.7c1.1,0,2.2,0.2,3.4,0.5c0.8,0.2,1.6,0.7,2.3,1.3c0.6,0.5,1.1,1.1,1.3,1.9c0.3,0.8,0.5,1.5,0.5,2.4
					s-0.2,1.7-0.5,2.5c-0.3,0.8-0.8,1.5-1.3,2c-0.7,0.6-1.5,1.1-2.3,1.3C14.2,17.9,13.2,18,12,18H9.8v6.1H5.5V5.8L11.9,5.7L11.9,5.7
					z M11.9,14.7c0.8,0.1,1.8-0.2,2.4-0.8c0.5-0.6,0.8-1.4,0.8-2.2c0-0.4,0-0.8-0.2-1.1c-0.2-0.3-0.3-0.6-0.5-0.8
					c-0.3-0.2-0.6-0.5-1-0.5C12.9,9,12.5,8.9,12,8.9H9.7v5.8L11.9,14.7z"/>
				<line class="st1" x1="9.7" y1="36.2" x2="33.4" y2="12.5"/>
			</g>
		</g>
	</g>
</g>
</svg>
