<?xml version="1.0" encoding="utf-8"?>
<!-- Generator: Adobe Illustrator 21.1.0, SVG Export Plug-In . SVG Version: 6.00 Build 0)  -->
<svg version="1.1" id="Layer_1" xmlns="http://www.w3.org/2000/svg" xmlns:xlink="http://www.w3.org/1999/xlink" x="0px" y="0px"
	 viewBox="0 0 95.2 95.2" style="enable-background:new 0 0 95.2 95.2;" xml:space="preserve">
<style type="text/css">
	.st0{fill:none;}
	.st1{fill:#ADADAD;}
	.st2{fill:none;stroke:#ADADAD;stroke-width:2;stroke-miterlimit:10;}
</style>
<title>Asset 5</title>
<g id="Layer_2">
	<g id="Layer_1-2">
		<g>
			<circle class="st0" cx="47.6" cy="47.7" r="46.6"/>
			<g>
				<path class="st1" d="M61.9,47.4c1.5,0,2.9,0.2,4.4,0.6c1.1,0.3,2.1,0.9,3,1.7c0.8,0.7,1.4,1.5,1.7,2.5c0.4,1,0.6,2,0.6,3.1
					c0,1.1-0.2,2.2-0.6,3.3c-0.4,1-1,1.9-1.8,2.6c-0.9,0.8-1.9,1.4-3,1.7c-1.4,0.4-2.8,0.6-4.3,0.6h-2.9v8h-5.6v-24H61.9z
					 M61.9,59.2c1.9,0.3,3.7-1,4.1-2.9c0.1-0.3,0.1-0.7,0-1c0-0.5-0.1-1-0.2-1.5c-0.2-0.4-0.4-0.8-0.7-1.1c-0.4-0.3-0.8-0.6-1.3-0.7
					c-0.6-0.2-1.2-0.3-1.8-0.3h-2.9v7.6L61.9,59.2z"/>
				<path class="st1" d="M33.1,22.7c1.5,0,2.9,0.2,4.4,0.6c1.1,0.3,2.1,0.9,3,1.7c0.8,0.7,1.4,1.5,1.7,2.5c0.4,1,0.6,2,0.6,3.1
					c0,1.1-0.2,2.2-0.6,3.3c-0.4,1-1,1.9-1.7,2.6c-0.9,0.8-1.9,1.4-3,1.7c-1.4,0.4-2.8,0.6-4.3,0.6h-2.9v8h-5.6v-24H33.1z
					 M33.1,34.4c1.1,0.1,2.3-0.3,3.1-1c0.7-0.8,1-1.8,1-2.9c0-0.5,0-1-0.2-1.5c-0.2-0.4-0.4-0.8-0.7-1.1c-0.4-0.3-0.8-0.6-1.3-0.7
					c-0.6-0.2-1.2-0.3-1.8-0.3h-3v7.6L33.1,34.4z"/>
				<line class="st2" x1="30.2" y1="62.5" x2="61.1" y2="31.5"/>
			</g>
		</g>
	</g>
</g>
</svg>
