<svg xmlns="http://www.w3.org/2000/svg" viewBox="0 0 95.22 95.22">
  <defs>
    <style>
      .cls-1 {
        fill: none;
        stroke: #010101;
        stroke-linecap: round;
        stroke-miterlimit: 10;
        stroke-width: 2px;
      }

      .cls-2 {
        fill: #231f20;
      }
    </style>
  </defs>
  <title>Asset 5</title>
  <g id="Layer_2" data-name="Layer 2">
    <g id="Layer_1-2" data-name="Layer 1">
      <g>
        <circle class="cls-1" cx="47.61" cy="47.61" r="46.61"/>
        <g>
          <path class="cls-1" d="M41,82.15c-15.74,0-28.5-15.47-28.5-34.54S25.23,13.06,41,13.06Z"/>
          <path class="cls-1" d="M54.25,82.15c15.74,0,28.5-15.47,28.5-34.54S70,13.06,54.25,13.06Z"/>
          <path class="cls-2" d="M67.31,36.59a12.15,12.15,0,0,1,3.79.52,7.27,7.27,0,0,1,2.61,1.44,5.62,5.62,0,0,1,1.51,2.16,7.34,7.34,0,0,1,.49,2.69,7.91,7.91,0,0,1-.5,2.87,5.75,5.75,0,0,1-1.53,2.24A7.23,7.23,0,0,1,71.06,50a12,12,0,0,1-3.75.52H64.79v7H59.95V36.59Zm0,10.24a3.07,3.07,0,0,0,3.55-3.42,3.77,3.77,0,0,0-.21-1.3,2.65,2.65,0,0,0-.65-1,2.94,2.94,0,0,0-1.1-.65,4.88,4.88,0,0,0-1.58-.23H64.79v6.62Z"/>
          <path class="cls-2" d="M27.62,36.59a12.15,12.15,0,0,1,3.79.52A7.27,7.27,0,0,1,34,38.55a5.62,5.62,0,0,1,1.51,2.16A7.34,7.34,0,0,1,36,43.41a7.91,7.91,0,0,1-.5,2.87A5.75,5.75,0,0,1,34,48.51,7.23,7.23,0,0,1,31.37,50a12,12,0,0,1-3.75.52H25.1v7H20.26V36.59Zm0,10.24a3.55,3.55,0,0,0,2.72-.9,3.59,3.59,0,0,0,.83-2.52A3.77,3.77,0,0,0,31,42.1a2.65,2.65,0,0,0-.65-1,2.94,2.94,0,0,0-1.1-.65,4.88,4.88,0,0,0-1.58-.23H25.1v6.62Z"/>
        </g>
      </g>
    </g>
  </g>
</svg>
