<?xml version="1.0" encoding="utf-8"?>
<!-- Generator: Adobe Illustrator 21.0.2, SVG Export Plug-In . SVG Version: 6.00 Build 0)  -->
<svg version="1.1" id="Layer_1" xmlns="http://www.w3.org/2000/svg" xmlns:xlink="http://www.w3.org/1999/xlink" x="0px" y="0px"
	 viewBox="0 0 50 50" style="enable-background:new 0 0 50 50;" xml:space="preserve">
<style type="text/css">
	.st0{fill:none;stroke:#212121;stroke-width:2;stroke-linecap:round;stroke-miterlimit:10;}
	.st1{fill:#212121;stroke:#212121;stroke-miterlimit:10;}
</style>
<title>Asset 1</title>
<g id="Layer_2">
	<g id="Layer_1-2">
		<circle class="st0" cx="25" cy="25" r="24"/>
		<path class="st1" d="M29.9,35.5c-0.1-1.4-0.1-2.8-0.1-4.2c0.7-0.4,2-2.8,2.3-4.9c0.6,0,1.5-0.6,1.7-2.8c0.2-0.8-0.1-1.6-0.8-2.1
			C34,18.7,36,10,29.5,9.1c-0.7-1.1-2.4-1.8-4.6-1.8c-8.9,0.2-9.9,6.7-8,14.2c-0.6,0.5-0.9,1.3-0.8,2.1c0.3,2.2,1.2,2.8,1.7,2.8
			c0.2,2.1,1.6,4.5,2.3,4.9c0,1.4,0,2.8-0.1,4.2c-1.3,3.4-7.7,3.7-11.5,6.9c4.6,4.3,10.6,6.8,16.9,6.7c6.7,0,14.5-5.3,15.8-6.7
			C37.7,39.2,31.2,38.9,29.9,35.5z"/>
	</g>
</g>
</svg>
