<?xml version="1.0" encoding="utf-8"?>
<!-- Generator: Adobe Illustrator 21.1.0, SVG Export Plug-In . SVG Version: 6.00 Build 0)  -->
<svg version="1.1" id="Layer_1" xmlns="http://www.w3.org/2000/svg" xmlns:xlink="http://www.w3.org/1999/xlink" x="0px" y="0px"
	 viewBox="0 0 50 50" style="enable-background:new 0 0 50 50;" xml:space="preserve">
<style type="text/css">
	.st0{fill:none;stroke:#ADADAD;stroke-width:2;stroke-miterlimit:10;}
</style>
<title>Asset 1</title>
<g id="Layer_2">
	<g id="Layer_1-2">
		<path class="st0" d="M30.2,35.2c0,0,4-2.3,5.1-2.9c0.8-0.6,1.9-0.7,2.8-0.3c1,0.6,9.5,6.2,10.2,6.7s1,1.9,0.1,3.3S42.9,49.1,41,49
			s-9.9-0.2-24.8-15.2S1.1,10.9,1,9s5.5-6.4,6.9-7.4c1-0.8,2.4-0.8,3.3,0.1c0.6,0.8,6.1,9.2,6.7,10.2c0.4,0.9,0.3,2-0.3,2.8
			c-0.6,1.1-2.9,5.1-2.9,5.1s1.6,2.8,7.2,8.3S30.2,35.2,30.2,35.2z"/>
	</g>
</g>
</svg>
